<svg xmlns="http://www.w3.org/2000/svg" width="122.9" height="71.094"><path d="M 60.01 0 L 79.59 0 L 91.211 23.633 L 102.832 0 L 122.363 0 L 102.539 35.254 L 122.9 71.094 L 103.174 71.094 L 91.211 47.022 L 79.248 71.094 L 59.473 71.094 L 79.883 35.254 L 60.01 0 Z M 23.096 71.094 L 7.324 71.094 L 7.422 57.911 L 23.096 57.911 Q 27.979 57.911 31.372 55.567 Q 34.766 53.223 36.548 48.56 Q 38.33 43.897 38.33 37.061 L 38.33 33.985 Q 38.33 28.858 37.329 24.976 Q 36.328 21.094 34.375 18.482 Q 32.422 15.87 29.517 14.551 Q 26.611 13.233 22.852 13.233 L 7.031 13.233 L 7.031 0 L 22.852 0 Q 30.078 0 36.108 2.466 Q 42.139 4.932 46.558 9.498 Q 50.977 14.063 53.394 20.289 Q 55.811 26.514 55.811 34.083 L 55.811 37.061 Q 55.811 44.581 53.394 50.831 Q 50.977 57.081 46.582 61.622 Q 42.188 66.163 36.206 68.628 Q 30.225 71.094 23.096 71.094 Z M 0 0 L 17.139 0 L 17.139 71.094 L 0 71.094 L 0 0 Z" fill="#fff"/></svg>
