<svg xmlns="http://www.w3.org/2000/svg" width="194.127" height="93.503"><path d="M 132.325 86.002 L 132.325 42.002 Q 132.325 41.502 132.025 41.902 Q 128.525 46.502 126.975 48.102 Q 125.425 49.702 121.225 45.402 Q 117.025 41.102 122.625 36.002 Q 124.525 34.302 130.825 23.302 Q 136.925 12.802 138.525 7.602 Q 140.725 0.402 146.125 2.102 Q 151.425 3.902 150.325 7.152 Q 149.225 10.402 146.425 16.702 Q 146.225 17.202 146.725 17.202 L 185.025 17.202 Q 192.525 17.202 192.525 22.302 Q 192.525 27.402 185.025 27.402 L 173.325 27.402 Q 172.825 27.402 172.825 27.902 L 172.825 36.502 Q 172.825 37.002 173.325 37.002 L 183.125 37.002 Q 190.625 37.002 190.625 42.102 Q 190.625 47.202 183.125 47.202 L 173.325 47.202 Q 172.825 47.202 172.825 47.702 L 172.825 56.002 Q 172.825 56.502 173.325 56.502 L 182.925 56.502 Q 190.425 56.502 190.425 61.602 Q 190.425 66.702 182.925 66.702 L 173.325 66.702 Q 172.825 66.702 172.825 67.202 L 172.825 75.902 Q 172.825 76.402 173.325 76.402 L 186.625 76.402 Q 194.125 76.402 194.125 81.702 Q 194.125 87.002 186.625 87.002 L 143.725 87.002 Q 143.225 87.002 143.225 87.502 Q 143.225 93.502 137.825 93.502 Q 132.325 93.502 132.325 86.002 Z M 14.925 85.902 L 14.925 53.102 Q 14.925 52.602 14.725 53.102 Q 10.325 66.602 8.725 68.902 Q 7.125 71.202 2.325 67.602 Q -2.375 64.102 2.425 58.202 Q 3.425 56.902 7.125 47.802 Q 10.525 39.602 12.525 31.202 Q 12.625 30.702 12.125 30.702 L 8.525 30.702 Q 1.025 30.702 1.025 25.202 Q 1.025 19.702 8.525 19.702 L 14.425 19.702 Q 14.925 19.702 14.925 19.202 L 14.925 7.502 Q 14.925 0.002 20.825 0.002 Q 26.725 0.002 26.725 7.502 L 26.725 19.202 Q 26.725 19.702 27.225 19.702 L 30.925 19.702 Q 38.425 19.702 38.425 25.202 Q 38.425 30.702 30.925 30.702 L 27.225 30.702 Q 26.725 30.702 26.725 31.202 Q 26.725 32.802 28.225 34.302 Q 30.525 36.702 36.225 43.902 Q 41.025 49.902 36.625 52.702 Q 32.325 55.402 31.925 54.602 Q 31.525 53.802 27.025 46.602 Q 26.725 46.202 26.725 46.702 L 26.725 85.902 Q 26.725 93.402 20.825 93.402 Q 14.925 93.402 14.925 85.902 Z M 56.225 92.602 L 55.025 92.702 Q 49.825 92.902 49.725 86.702 Q 49.725 80.602 57.425 80.702 Q 58.425 80.702 58.775 80.402 Q 59.125 80.102 59.125 79.102 L 59.125 41.602 Q 59.125 41.102 58.625 41.102 L 47.125 41.102 Q 39.625 41.102 39.625 35.502 Q 39.625 30.002 47.125 30.002 L 86.125 30.002 Q 93.625 30.002 93.625 35.502 Q 93.625 41.102 86.125 41.102 L 71.725 41.102 Q 71.225 41.102 71.225 41.602 L 71.225 79.402 Q 71.225 84.102 70.325 86.502 Q 69.325 89.202 66.725 90.602 Q 64.125 92.002 62.175 92.252 Q 60.225 92.502 56.225 92.602 Z M 80.525 17.302 L 51.625 17.302 Q 44.125 17.302 44.125 11.702 Q 44.125 6.202 51.625 6.202 L 80.525 6.202 Q 88.025 6.202 88.025 11.702 Q 88.025 17.302 80.525 17.302 Z M 116.625 82.002 Q 113.625 89.002 107.525 86.102 Q 101.425 83.202 104.825 76.502 Q 108.625 69.202 113.025 57.102 Q 115.625 50.102 121.325 52.202 Q 127.025 54.202 124.625 61.302 Q 120.825 72.102 116.625 82.002 Z M 89.325 82.802 Q 83.725 83.602 83.425 81.252 Q 83.125 78.902 80.425 69.802 Q 77.825 61.002 77.525 60.302 Q 74.725 53.402 79.525 51.402 Q 84.225 49.402 87.225 56.202 Q 92.625 68.202 93.625 74.602 Q 94.825 82.002 89.325 82.802 Z M 43.625 81.352 Q 41.725 84.302 37.125 81.202 Q 32.525 78.002 37.025 71.902 Q 40.025 67.902 42.325 57.702 Q 43.925 50.302 49.225 51.602 Q 54.625 52.802 52.825 60.102 Q 52.525 61.302 49.025 69.852 Q 45.525 78.402 43.625 81.352 Z M 118.925 30.402 Q 112.925 32.602 110.325 25.502 Q 109.925 24.302 105.025 15.802 Q 101.325 9.302 106.325 6.302 Q 111.325 3.302 115.225 9.702 Q 121.325 19.402 122.025 21.102 Q 124.825 28.102 118.925 30.402 Z M 143.225 67.202 L 143.225 75.902 Q 143.225 76.402 143.725 76.402 L 160.725 76.402 Q 161.225 76.402 161.225 75.902 L 161.225 67.202 Q 161.225 66.702 160.725 66.702 L 143.725 66.702 Q 143.225 66.702 143.225 67.202 Z M 143.225 27.902 L 143.225 36.502 Q 143.225 37.002 143.725 37.002 L 160.725 37.002 Q 161.225 37.002 161.225 36.502 L 161.225 27.902 Q 161.225 27.402 160.725 27.402 L 143.725 27.402 Q 143.225 27.402 143.225 27.902 Z M 143.225 47.702 L 143.225 56.002 Q 143.225 56.502 143.725 56.502 L 160.725 56.502 Q 161.225 56.502 161.225 56.002 L 161.225 47.702 Q 161.225 47.202 160.725 47.202 L 143.725 47.202 Q 143.225 47.202 143.225 47.702 Z M 170.725 17.202 Q 165.225 19.702 162.125 12.902 Q 161.725 11.902 159.725 8.702 Q 157.725 5.502 162.325 2.502 Q 166.825 -0.598 171.225 5.402 Q 172.825 7.602 173.025 7.902 Q 176.125 14.702 170.725 17.202 Z" fill="#fff"/></svg>
